<svg width="246" height="60" xmlns="http://www.w3.org/2000/svg" xmlns:xlink="http://www.w3.org/1999/xlink"><defs><path id="a" d="M.036 60h245.209V.498H.036V60z"/></defs><g fill="none" fill-rule="evenodd"><path d="M190.422 26.432c-.737 4.84-4.434 4.84-8.01 4.84h-2.034l1.427-9.037a1.124 1.124 0 0 1 1.11-.948h.933c2.433 0 4.733 0 5.918 1.386.71.83.924 2.06.656 3.76zm-1.557-12.628H175.38c-.922 0-1.707.67-1.85 1.581l-5.453 34.578a1.124 1.124 0 0 0 1.11 1.299h6.92a1.31 1.31 0 0 0 1.294-1.107l1.547-9.803a1.873 1.873 0 0 1 1.85-1.582h4.267c8.883 0 14.009-4.298 15.349-12.818.603-3.726.024-6.654-1.72-8.704-1.918-2.253-5.317-3.444-9.829-3.444z" fill="#2790C3"/><path d="M94.242 26.432c-.737 4.84-4.434 4.84-8.01 4.84h-2.034l1.427-9.037a1.125 1.125 0 0 1 1.11-.948h.933c2.434 0 4.733 0 5.918 1.386.71.83.924 2.06.656 3.76zm-1.556-12.628H79.201c-.922 0-1.707.67-1.85 1.581l-5.454 34.578a1.124 1.124 0 0 0 1.11 1.299h6.44c.92 0 1.706-.671 1.85-1.581l1.471-9.329a1.873 1.873 0 0 1 1.85-1.582h4.268c8.882 0 14.009-4.298 15.349-12.818.603-3.726.024-6.654-1.721-8.704-1.918-2.253-5.317-3.444-9.828-3.444zm31.306 25.041c-.624 3.69-3.553 6.167-7.288 6.167-1.873 0-3.372-.602-4.336-1.743-.955-1.13-1.315-2.742-1.012-4.536.582-3.656 3.557-6.213 7.236-6.213 1.834 0 3.323.608 4.306 1.76.989 1.159 1.377 2.78 1.094 4.565zm8.999-12.567h-6.457c-.553 0-1.024.401-1.11.949l-.285 1.805-.451-.654c-1.398-2.03-4.515-2.708-7.627-2.708-7.134 0-13.228 5.406-14.414 12.988-.617 3.783.26 7.397 2.404 9.92 1.97 2.318 4.782 3.283 8.133 3.283 5.75 0 8.939-3.694 8.939-3.694l-.288 1.795c-.108.682.419 1.3 1.11 1.3h5.815c.922 0 1.707-.67 1.85-1.581l3.491-22.105a1.123 1.123 0 0 0-1.11-1.298z" fill="#27346A"/><path d="M220.172 38.845c-.624 3.69-3.553 6.167-7.288 6.167-1.874 0-3.372-.602-4.337-1.743-.955-1.13-1.314-2.742-1.011-4.536.581-3.656 3.557-6.213 7.236-6.213 1.833 0 3.323.608 4.305 1.76.99 1.159 1.378 2.78 1.095 4.565zm8.998-12.567h-6.457c-.553 0-1.024.401-1.11.949l-.284 1.805-.451-.654c-1.399-2.03-4.515-2.708-7.627-2.708-7.134 0-13.228 5.406-14.414 12.988-.617 3.783.26 7.397 2.403 9.92 1.971 2.318 4.783 3.283 8.133 3.283 5.75 0 8.94-3.694 8.94-3.694l-.288 1.795c-.109.682.418 1.3 1.11 1.3h5.814c.922 0 1.707-.67 1.851-1.581l3.49-22.105a1.123 1.123 0 0 0-1.11-1.298z" fill="#2790C3"/><mask id="b" fill="#fff"><use xlink:href="#a"/></mask><path d="M167.382 26.278h-6.49c-.621 0-1.202.307-1.55.82l-8.953 13.187-3.794-12.671a1.873 1.873 0 0 0-1.795-1.336h-6.38c-.77 0-1.313.757-1.064 1.486l7.146 20.977-6.721 9.485a1.124 1.124 0 0 0 .917 1.774h6.484c.614 0 1.19-.301 1.54-.807l21.584-31.15a1.125 1.125 0 0 0-.924-1.765" fill="#27346A" mask="url(#b)"/><path d="M236.781 14.753l-5.534 35.21a1.124 1.124 0 0 0 1.11 1.299h5.567c.921 0 1.706-.671 1.85-1.581l5.457-34.578c.108-.682-.42-1.3-1.11-1.3h-6.23c-.553 0-1.024.404-1.11.95" fill="#2790C3" mask="url(#b)"/><path d="M25.547 57.548l1.812-11.494.117-.637a2.36 2.36 0 0 1 2.332-1.992h1.44c2.4 0 4.604-.256 6.552-.761 2.079-.54 3.928-1.379 5.495-2.493 1.662-1.182 3.058-2.71 4.15-4.54 1.15-1.931 1.996-4.256 2.513-6.91.456-2.342.541-4.44.255-6.234-.304-1.896-1.034-3.514-2.17-4.81-.69-.784-1.571-1.464-2.621-2.02l-.025-.014v-.03c.366-2.34.352-4.29-.042-5.97-.397-1.682-1.2-3.197-2.456-4.628-2.603-2.967-7.337-4.47-14.071-4.47H10.334a2.602 2.602 0 0 0-2.567 2.193L.067 51.57a1.537 1.537 0 0 0 1.522 1.78H13.06l-.01.055-.788 4.997a1.342 1.342 0 0 0 1.325 1.551h9.624a2.268 2.268 0 0 0 2.24-1.914l.095-.49" fill="#27346A" mask="url(#b)"/><path d="M18.954 15.676a2.314 2.314 0 0 1 2.286-1.954h14.496c1.718 0 3.32.113 4.783.348.419.068.825.145 1.221.233a17.715 17.715 0 0 1 1.7.465c.718.24 1.387.52 2.003.847.726-4.629-.005-7.779-2.508-10.631C40.178 1.843 35.199.498 28.828.498H10.334c-1.302 0-2.41.947-2.613 2.233L.02 51.563a1.587 1.587 0 0 0 1.568 1.835h11.417l5.949-37.722" fill="#27346A" mask="url(#b)"/><path d="M45.443 15.615c-.055.353-.116.712-.19 1.083-2.437 12.521-10.781 16.85-21.438 16.85h-5.427a2.637 2.637 0 0 0-2.604 2.234l-3.567 22.613A1.389 1.389 0 0 0 13.588 60h9.624a2.314 2.314 0 0 0 2.286-1.954l.095-.489 1.812-11.496.117-.635a2.314 2.314 0 0 1 2.286-1.954h1.44c9.323 0 16.623-3.788 18.756-14.742.891-4.577.43-8.397-1.926-11.083-.713-.812-1.6-1.485-2.635-2.032" fill="#2790C3"/><path d="M42.89 14.598c-.37-.11-.754-.207-1.15-.295a21.06 21.06 0 0 0-1.22-.233c-1.465-.235-3.066-.348-4.784-.348H21.24a2.313 2.313 0 0 0-2.286 1.954l-3.081 19.536-.09.57a2.637 2.637 0 0 1 2.605-2.234h5.427c10.657 0 19-4.329 21.439-16.85.073-.37.134-.73.189-1.083a13.105 13.105 0 0 0-2.004-.847c-.18-.06-.362-.116-.548-.17" fill="#1F264F"/></g></svg>